<mxfile host="65bd71144e">
    <diagram id="ExmTyjFk9JqJFli2HTB0" name="Page-1">
        <mxGraphModel dx="1893" dy="1012" grid="1" gridSize="10" guides="1" tooltips="1" connect="1" arrows="1" fold="1" page="1" pageScale="1" pageWidth="850" pageHeight="1100" math="0" shadow="0">
            <root>
                <mxCell id="0"/>
                <mxCell id="1" parent="0"/>
                <mxCell id="107" value="" style="edgeStyle=orthogonalEdgeStyle;html=1;endArrow=none;fillColor=none;" parent="1" source="85" target="74" edge="1">
                    <mxGeometry relative="1" as="geometry">
                        <mxPoint x="981.7199999999996" y="560.0000000000002" as="sourcePoint"/>
                        <mxPoint x="1248.3388235294121" y="689.9999999999998" as="targetPoint"/>
                    </mxGeometry>
                </mxCell>
                <mxCell id="22" value="" style="edgeStyle=orthogonalEdgeStyle;html=1;fillColor=none;" parent="1" source="2" target="21" edge="1">
                    <mxGeometry relative="1" as="geometry"/>
                </mxCell>
                <mxCell id="2" value="Start" style="rounded=1;whiteSpace=wrap;html=1;fillColor=none;" parent="1" vertex="1">
                    <mxGeometry x="161.56" y="20" width="70" height="30" as="geometry"/>
                </mxCell>
                <mxCell id="3" value="End" style="rounded=1;whiteSpace=wrap;html=1;fillColor=none;" parent="1" vertex="1">
                    <mxGeometry x="161.56" y="1040" width="70" height="30" as="geometry"/>
                </mxCell>
                <mxCell id="18" value="False" style="edgeStyle=orthogonalEdgeStyle;html=1;fillColor=none;" parent="1" source="5" target="10" edge="1">
                    <mxGeometry relative="1" as="geometry"/>
                </mxCell>
                <mxCell id="26" value="True" style="edgeStyle=orthogonalEdgeStyle;html=1;fillColor=none;" parent="1" source="5" target="24" edge="1">
                    <mxGeometry relative="1" as="geometry"/>
                </mxCell>
                <mxCell id="5" value="action==S&lt;br&gt;(Sold)" style="rhombus;whiteSpace=wrap;html=1;fillColor=none;" parent="1" vertex="1">
                    <mxGeometry x="156.56" y="220" width="80" height="80" as="geometry"/>
                </mxCell>
                <mxCell id="9" value="" style="edgeStyle=none;html=1;entryX=0.5;entryY=0;entryDx=0;entryDy=0;fillColor=none;" parent="1" source="6" target="156" edge="1">
                    <mxGeometry relative="1" as="geometry"/>
                </mxCell>
                <mxCell id="6" value="&quot;Main_Menu&amp;gt;&quot;&lt;br&gt;&lt;br&gt;action=input" style="shape=parallelogram;perimeter=parallelogramPerimeter;whiteSpace=wrap;html=1;fixedSize=1;fillColor=none;" parent="1" vertex="1">
                    <mxGeometry x="136.56" y="80" width="120" height="60" as="geometry"/>
                </mxCell>
                <mxCell id="17" value="False" style="edgeStyle=orthogonalEdgeStyle;html=1;fillColor=none;" parent="1" source="10" target="12" edge="1">
                    <mxGeometry relative="1" as="geometry"/>
                </mxCell>
                <mxCell id="99" value="True" style="edgeStyle=orthogonalEdgeStyle;html=1;entryX=0;entryY=0.5;entryDx=0;entryDy=0;fillColor=none;" parent="1" source="10" target="29" edge="1">
                    <mxGeometry relative="1" as="geometry"/>
                </mxCell>
                <mxCell id="10" value="action==I&lt;br&gt;(Information)" style="rhombus;whiteSpace=wrap;html=1;fillColor=none;" parent="1" vertex="1">
                    <mxGeometry x="151.56" y="340" width="90" height="90" as="geometry"/>
                </mxCell>
                <mxCell id="13" value="True" style="edgeStyle=none;html=1;fillColor=none;" parent="1" source="11" target="3" edge="1">
                    <mxGeometry relative="1" as="geometry"/>
                </mxCell>
                <mxCell id="15" value="False" style="edgeStyle=orthogonalEdgeStyle;html=1;fillColor=none;" parent="1" source="11" target="14" edge="1">
                    <mxGeometry relative="1" as="geometry">
                        <Array as="points">
                            <mxPoint x="76.55" y="950"/>
                        </Array>
                    </mxGeometry>
                </mxCell>
                <mxCell id="11" value="action==Q&lt;br&gt;(Quit)" style="rhombus;whiteSpace=wrap;html=1;fillColor=none;" parent="1" vertex="1">
                    <mxGeometry x="156.56" y="910" width="80" height="80" as="geometry"/>
                </mxCell>
                <mxCell id="16" value="False" style="edgeStyle=orthogonalEdgeStyle;html=1;fillColor=none;" parent="1" source="12" target="11" edge="1">
                    <mxGeometry relative="1" as="geometry"/>
                </mxCell>
                <mxCell id="153" value="" style="edgeStyle=orthogonalEdgeStyle;html=1;fillColor=none;" parent="1" source="12" target="152" edge="1">
                    <mxGeometry relative="1" as="geometry"/>
                </mxCell>
                <mxCell id="12" value="action==H&lt;br&gt;(Help)" style="rhombus;whiteSpace=wrap;html=1;fillColor=none;" parent="1" vertex="1">
                    <mxGeometry x="156.56" y="770" width="80" height="80" as="geometry"/>
                </mxCell>
                <mxCell id="155" style="edgeStyle=orthogonalEdgeStyle;html=1;exitX=0.5;exitY=0;exitDx=0;exitDy=0;entryX=0;entryY=0.5;entryDx=0;entryDy=0;fillColor=none;" parent="1" source="14" target="6" edge="1">
                    <mxGeometry relative="1" as="geometry">
                        <Array as="points">
                            <mxPoint x="82" y="110"/>
                        </Array>
                    </mxGeometry>
                </mxCell>
                <mxCell id="14" value="&quot;Invalid command, for&lt;br&gt;&amp;nbsp;help press H&quot;" style="shape=parallelogram;perimeter=parallelogramPerimeter;whiteSpace=wrap;html=1;fixedSize=1;fillColor=none;" parent="1" vertex="1">
                    <mxGeometry x="11.56" y="730" width="148.44" height="65" as="geometry"/>
                </mxCell>
                <mxCell id="23" style="edgeStyle=orthogonalEdgeStyle;html=1;exitX=0.5;exitY=1;exitDx=0;exitDy=0;fillColor=none;" parent="1" source="21" target="6" edge="1">
                    <mxGeometry relative="1" as="geometry"/>
                </mxCell>
                <mxCell id="21" value="Declare lists:&lt;br&gt;sold=[]&lt;br&gt;price=[]" style="whiteSpace=wrap;html=1;fillColor=none;" parent="1" vertex="1">
                    <mxGeometry x="280" y="20" width="120" height="60" as="geometry"/>
                </mxCell>
                <mxCell id="27" style="edgeStyle=orthogonalEdgeStyle;html=1;exitX=1;exitY=0.5;exitDx=0;exitDy=0;entryX=0;entryY=0.5;entryDx=0;entryDy=0;fillColor=none;" parent="1" source="24" target="25" edge="1">
                    <mxGeometry relative="1" as="geometry"/>
                </mxCell>
                <mxCell id="24" value="&quot;Product name: &quot;&lt;br&gt;&lt;br&gt;sold.append(input)" style="shape=parallelogram;perimeter=parallelogramPerimeter;whiteSpace=wrap;html=1;fixedSize=1;fillColor=none;" parent="1" vertex="1">
                    <mxGeometry x="280" y="230" width="140" height="60" as="geometry"/>
                </mxCell>
                <mxCell id="28" style="edgeStyle=orthogonalEdgeStyle;html=1;entryX=1;entryY=0.5;entryDx=0;entryDy=0;fillColor=none;" parent="1" source="25" target="6" edge="1">
                    <mxGeometry relative="1" as="geometry">
                        <Array as="points">
                            <mxPoint x="490" y="110"/>
                        </Array>
                    </mxGeometry>
                </mxCell>
                <mxCell id="25" value="&quot;Product price: &quot;&lt;br&gt;&lt;br&gt;price.append(input)" style="shape=parallelogram;perimeter=parallelogramPerimeter;whiteSpace=wrap;html=1;fixedSize=1;fillColor=none;" parent="1" vertex="1">
                    <mxGeometry x="430" y="230" width="140" height="60" as="geometry"/>
                </mxCell>
                <mxCell id="47" style="edgeStyle=orthogonalEdgeStyle;html=1;exitX=1;exitY=0.5;exitDx=0;exitDy=0;entryX=0;entryY=0.5;entryDx=0;entryDy=0;fillColor=none;" parent="1" source="100" target="43" edge="1">
                    <mxGeometry relative="1" as="geometry"/>
                </mxCell>
                <mxCell id="149" value="" style="edgeStyle=orthogonalEdgeStyle;html=1;fillColor=none;" parent="1" source="29" target="98" edge="1">
                    <mxGeometry relative="1" as="geometry"/>
                </mxCell>
                <mxCell id="29" value="&quot;There have been&lt;br&gt;(str(len(sold))) bunches sold&quot;" style="shape=parallelogram;perimeter=parallelogramPerimeter;whiteSpace=wrap;html=1;fixedSize=1;fillColor=none;" parent="1" vertex="1">
                    <mxGeometry x="280" y="356.25" width="210" height="57.5" as="geometry"/>
                </mxCell>
                <mxCell id="46" style="edgeStyle=orthogonalEdgeStyle;html=1;exitX=1;exitY=0.5;exitDx=0;exitDy=0;fillColor=none;" parent="1" source="43" target="44" edge="1">
                    <mxGeometry relative="1" as="geometry"/>
                </mxCell>
                <mxCell id="43" value="Most=&lt;br&gt;max(price)" style="whiteSpace=wrap;html=1;fillColor=none;" parent="1" vertex="1">
                    <mxGeometry x="1020" y="96.86999999999999" width="120" height="60" as="geometry"/>
                </mxCell>
                <mxCell id="52" value="" style="edgeStyle=orthogonalEdgeStyle;html=1;fillColor=none;" parent="1" source="44" target="51" edge="1">
                    <mxGeometry relative="1" as="geometry">
                        <Array as="points">
                            <mxPoint x="1414.22" y="135.63"/>
                        </Array>
                    </mxGeometry>
                </mxCell>
                <mxCell id="44" value="Least=&lt;br&gt;min(price)" style="whiteSpace=wrap;html=1;fillColor=none;" parent="1" vertex="1">
                    <mxGeometry x="1200" y="96.86999999999999" width="120" height="60" as="geometry"/>
                </mxCell>
                <mxCell id="48" value="Least=&lt;br&gt;price(x)" style="rhombus;whiteSpace=wrap;html=1;fillColor=none;" parent="1" vertex="1">
                    <mxGeometry x="940" y="200" width="80" height="80" as="geometry"/>
                </mxCell>
                <mxCell id="54" value="False" style="edgeStyle=orthogonalEdgeStyle;html=1;fillColor=none;" parent="1" source="48" target="49" edge="1">
                    <mxGeometry relative="1" as="geometry"/>
                </mxCell>
                <mxCell id="58" value="True" style="edgeStyle=orthogonalEdgeStyle;html=1;fillColor=none;" parent="1" source="49" target="57" edge="1">
                    <mxGeometry relative="1" as="geometry"/>
                </mxCell>
                <mxCell id="69" value="False" style="edgeStyle=orthogonalEdgeStyle;html=1;exitX=1;exitY=0.5;exitDx=0;exitDy=0;entryX=1;entryY=0.5;entryDx=0;entryDy=0;fillColor=none;" parent="1" source="49" target="55" edge="1">
                    <mxGeometry relative="1" as="geometry">
                        <Array as="points">
                            <mxPoint x="1310" y="240"/>
                            <mxPoint x="1310" y="385"/>
                        </Array>
                        <mxPoint as="offset"/>
                    </mxGeometry>
                </mxCell>
                <mxCell id="49" value="Most=&lt;br&gt;price(x)" style="rhombus;whiteSpace=wrap;html=1;fillColor=none;" parent="1" vertex="1">
                    <mxGeometry x="1090" y="200" width="80" height="80" as="geometry"/>
                </mxCell>
                <mxCell id="93" style="edgeStyle=orthogonalEdgeStyle;html=1;exitX=0;exitY=0.5;exitDx=0;exitDy=0;entryX=1;entryY=0.5;entryDx=0;entryDy=0;fillColor=none;" parent="1" source="50" target="92" edge="1">
                    <mxGeometry relative="1" as="geometry"/>
                </mxCell>
                <mxCell id="50" value="&quot;Bunches (x) consinting of (sold(most(x)))&quot;" style="shape=parallelogram;perimeter=parallelogramPerimeter;whiteSpace=wrap;html=1;fixedSize=1;fillColor=none;" parent="1" vertex="1">
                    <mxGeometry x="1158.28" y="445" width="180" height="50" as="geometry"/>
                </mxCell>
                <mxCell id="84" value="" style="edgeStyle=orthogonalEdgeStyle;html=1;exitX=0.5;exitY=1;exitDx=0;exitDy=0;fillColor=none;" parent="1" source="51" target="65" edge="1">
                    <mxGeometry relative="1" as="geometry"/>
                </mxCell>
                <mxCell id="51" value="x=0&lt;br&gt;least=[]&lt;br&gt;most=[]" style="whiteSpace=wrap;html=1;fillColor=none;" parent="1" vertex="1">
                    <mxGeometry x="1379.14" y="89.67999999999999" width="81.72" height="74.38" as="geometry"/>
                </mxCell>
                <mxCell id="63" style="edgeStyle=orthogonalEdgeStyle;html=1;entryX=0.5;entryY=1;entryDx=0;entryDy=0;fillColor=none;" parent="1" source="55" edge="1">
                    <mxGeometry relative="1" as="geometry">
                        <mxPoint x="1420" y="280" as="targetPoint"/>
                        <Array as="points">
                            <mxPoint x="1230" y="410"/>
                            <mxPoint x="1420" y="410"/>
                        </Array>
                    </mxGeometry>
                </mxCell>
                <mxCell id="55" value="x+=1" style="whiteSpace=wrap;html=1;fillColor=none;" parent="1" vertex="1">
                    <mxGeometry x="1200" y="370" width="60" height="30" as="geometry"/>
                </mxCell>
                <mxCell id="62" value="" style="edgeStyle=orthogonalEdgeStyle;html=1;fillColor=none;" parent="1" source="57" target="55" edge="1">
                    <mxGeometry relative="1" as="geometry"/>
                </mxCell>
                <mxCell id="57" value="most.append(x)" style="whiteSpace=wrap;html=1;fillColor=none;" parent="1" vertex="1">
                    <mxGeometry x="1080" y="318.13" width="100" height="40" as="geometry"/>
                </mxCell>
                <mxCell id="59" value="True" style="edgeStyle=orthogonalEdgeStyle;html=1;exitX=0.5;exitY=1;exitDx=0;exitDy=0;fillColor=none;" parent="1" source="48" target="60" edge="1">
                    <mxGeometry relative="1" as="geometry">
                        <mxPoint x="1100" y="290" as="sourcePoint"/>
                    </mxGeometry>
                </mxCell>
                <mxCell id="61" style="edgeStyle=orthogonalEdgeStyle;html=1;exitX=0.5;exitY=1;exitDx=0;exitDy=0;entryX=0;entryY=0.5;entryDx=0;entryDy=0;fillColor=none;" parent="1" source="60" target="55" edge="1">
                    <mxGeometry relative="1" as="geometry"/>
                </mxCell>
                <mxCell id="60" value="least.append(x)" style="whiteSpace=wrap;html=1;fillColor=none;" parent="1" vertex="1">
                    <mxGeometry x="930" y="318.13" width="100" height="40" as="geometry"/>
                </mxCell>
                <mxCell id="67" value="True" style="edgeStyle=orthogonalEdgeStyle;html=1;exitX=0;exitY=0.5;exitDx=0;exitDy=0;entryX=0.5;entryY=0;entryDx=0;entryDy=0;fillColor=none;" parent="1" source="65" target="48" edge="1">
                    <mxGeometry relative="1" as="geometry">
                        <mxPoint x="1400" y="220" as="sourcePoint"/>
                        <Array as="points">
                            <mxPoint x="1380" y="180"/>
                            <mxPoint x="980" y="180"/>
                        </Array>
                    </mxGeometry>
                </mxCell>
                <mxCell id="68" value="False" style="edgeStyle=orthogonalEdgeStyle;html=1;entryX=0;entryY=0.5;entryDx=0;entryDy=0;fillColor=none;" parent="1" source="65" target="70" edge="1">
                    <mxGeometry x="-0.25" relative="1" as="geometry">
                        <Array as="points"/>
                        <mxPoint as="offset"/>
                    </mxGeometry>
                </mxCell>
                <mxCell id="65" value="x&amp;lt;len(price)" style="rhombus;whiteSpace=wrap;html=1;fillColor=none;" parent="1" vertex="1">
                    <mxGeometry x="1380" y="200" width="80" height="80" as="geometry"/>
                </mxCell>
                <mxCell id="79" style="edgeStyle=orthogonalEdgeStyle;html=1;exitX=0.5;exitY=1;exitDx=0;exitDy=0;fillColor=none;" parent="1" source="70" target="78" edge="1">
                    <mxGeometry relative="1" as="geometry"/>
                </mxCell>
                <mxCell id="70" value="x=0" style="whiteSpace=wrap;html=1;fillColor=none;" parent="1" vertex="1">
                    <mxGeometry x="1538.28" y="280" width="50" height="20" as="geometry"/>
                </mxCell>
                <mxCell id="91" value="" style="edgeStyle=orthogonalEdgeStyle;html=1;fillColor=none;" parent="1" source="74" target="90" edge="1">
                    <mxGeometry relative="1" as="geometry"/>
                </mxCell>
                <mxCell id="81" value="True" style="edgeStyle=orthogonalEdgeStyle;html=1;exitX=0.5;exitY=1;exitDx=0;exitDy=0;entryX=0.5;entryY=0;entryDx=0;entryDy=0;fillColor=none;" parent="1" source="78" target="80" edge="1">
                    <mxGeometry relative="1" as="geometry"/>
                </mxCell>
                <mxCell id="83" value="False" style="edgeStyle=orthogonalEdgeStyle;html=1;fillColor=none;" parent="1" source="78" target="50" edge="1">
                    <mxGeometry relative="1" as="geometry"/>
                </mxCell>
                <mxCell id="78" value="x+1==&lt;br&gt;len(most)" style="rhombus;whiteSpace=wrap;html=1;fillColor=none;" parent="1" vertex="1">
                    <mxGeometry x="1526.56" y="430" width="73.44" height="80" as="geometry"/>
                </mxCell>
                <mxCell id="126" value="" style="edgeStyle=orthogonalEdgeStyle;html=1;entryX=0.5;entryY=0;entryDx=0;entryDy=0;fillColor=none;" parent="1" source="80" target="128" edge="1">
                    <mxGeometry relative="1" as="geometry"/>
                </mxCell>
                <mxCell id="80" value="&quot;Bunche (x) consinting of (sold(most(x))) was the most expensive and sold for (Most)&quot;" style="shape=parallelogram;perimeter=parallelogramPerimeter;whiteSpace=wrap;html=1;fixedSize=1;fillColor=none;" parent="1" vertex="1">
                    <mxGeometry x="1462.03" y="580" width="202.5" height="50" as="geometry"/>
                </mxCell>
                <mxCell id="87" value="True" style="edgeStyle=orthogonalEdgeStyle;html=1;fillColor=none;" parent="1" source="85" target="74" edge="1">
                    <mxGeometry x="-0.0102" relative="1" as="geometry">
                        <mxPoint as="offset"/>
                    </mxGeometry>
                </mxCell>
                <mxCell id="96" value="False" style="edgeStyle=orthogonalEdgeStyle;html=1;startArrow=none;exitX=0.5;exitY=1;exitDx=0;exitDy=0;fillColor=none;" parent="1" source="85" target="95" edge="1">
                    <mxGeometry relative="1" as="geometry"/>
                </mxCell>
                <mxCell id="85" value="x&amp;lt;&lt;br&gt;len(most)" style="rhombus;whiteSpace=wrap;html=1;fillColor=none;" parent="1" vertex="1">
                    <mxGeometry x="908.28" y="495" width="73.44" height="80" as="geometry"/>
                </mxCell>
                <mxCell id="97" style="edgeStyle=orthogonalEdgeStyle;html=1;exitX=0;exitY=0.5;exitDx=0;exitDy=0;entryX=1;entryY=1;entryDx=0;entryDy=0;fillColor=none;" parent="1" source="90" target="85" edge="1">
                    <mxGeometry relative="1" as="geometry"/>
                </mxCell>
                <mxCell id="90" value="x+=1" style="whiteSpace=wrap;html=1;fillColor=none;" parent="1" vertex="1">
                    <mxGeometry x="1075.3899999999999" y="590" width="64.22" height="30" as="geometry"/>
                </mxCell>
                <mxCell id="94" style="edgeStyle=orthogonalEdgeStyle;html=1;exitX=0;exitY=0.5;exitDx=0;exitDy=0;fillColor=none;" parent="1" source="92" target="85" edge="1">
                    <mxGeometry relative="1" as="geometry"/>
                </mxCell>
                <mxCell id="92" value="x+=1" style="whiteSpace=wrap;html=1;fillColor=none;" parent="1" vertex="1">
                    <mxGeometry x="1048.2799999999997" y="455" width="64.22" height="30" as="geometry"/>
                </mxCell>
                <mxCell id="127" style="edgeStyle=orthogonalEdgeStyle;html=1;exitX=1;exitY=0.5;exitDx=0;exitDy=0;entryX=0;entryY=0.5;entryDx=0;entryDy=0;fillColor=none;" parent="1" source="95" target="128" edge="1">
                    <mxGeometry relative="1" as="geometry"/>
                </mxCell>
                <mxCell id="95" value="&quot; were the most expensive and all sold for (Most)&quot;" style="shape=parallelogram;perimeter=parallelogramPerimeter;whiteSpace=wrap;html=1;fixedSize=1;fillColor=none;" parent="1" vertex="1">
                    <mxGeometry x="885" y="670" width="120" height="60" as="geometry"/>
                </mxCell>
                <mxCell id="98" value="" style="ellipse;whiteSpace=wrap;html=1;fillColor=#E6E6E6;" parent="1" vertex="1">
                    <mxGeometry x="530" y="371.88" width="24.22" height="26.25" as="geometry"/>
                </mxCell>
                <mxCell id="100" value="" style="ellipse;whiteSpace=wrap;html=1;fillColor=#E6E6E6;" parent="1" vertex="1">
                    <mxGeometry x="910" y="96.86999999999999" width="24.22" height="26.25" as="geometry"/>
                </mxCell>
                <mxCell id="74" value="&quot;, (x) consinting of (sold(most(x)))&quot;" style="shape=parallelogram;perimeter=parallelogramPerimeter;whiteSpace=wrap;html=1;fixedSize=1;fillColor=none;" parent="1" vertex="1">
                    <mxGeometry x="1038.28" y="515" width="138.44" height="40" as="geometry"/>
                </mxCell>
                <mxCell id="109" value="" style="edgeStyle=orthogonalEdgeStyle;html=1;endArrow=none;fillColor=none;" parent="1" source="119" target="125" edge="1">
                    <mxGeometry relative="1" as="geometry">
                        <mxPoint x="981.7199999999996" y="870.0000000000002" as="sourcePoint"/>
                        <mxPoint x="1248.3388235294121" y="999.9999999999998" as="targetPoint"/>
                    </mxGeometry>
                </mxCell>
                <mxCell id="110" style="edgeStyle=orthogonalEdgeStyle;html=1;exitX=0;exitY=0.5;exitDx=0;exitDy=0;entryX=1;entryY=0.5;entryDx=0;entryDy=0;fillColor=none;" parent="1" source="111" target="123" edge="1">
                    <mxGeometry relative="1" as="geometry"/>
                </mxCell>
                <mxCell id="111" value="&quot;Bunches (x) consinting of (sold(least(x)))&quot;" style="shape=parallelogram;perimeter=parallelogramPerimeter;whiteSpace=wrap;html=1;fixedSize=1;fillColor=none;" parent="1" vertex="1">
                    <mxGeometry x="1158.28" y="755" width="180" height="50" as="geometry"/>
                </mxCell>
                <mxCell id="112" value="" style="edgeStyle=orthogonalEdgeStyle;html=1;fillColor=none;" parent="1" source="125" target="121" edge="1">
                    <mxGeometry relative="1" as="geometry"/>
                </mxCell>
                <mxCell id="113" value="True" style="edgeStyle=orthogonalEdgeStyle;html=1;exitX=0.5;exitY=1;exitDx=0;exitDy=0;entryX=0.5;entryY=0;entryDx=0;entryDy=0;fillColor=none;" parent="1" source="115" target="116" edge="1">
                    <mxGeometry relative="1" as="geometry"/>
                </mxCell>
                <mxCell id="114" value="False" style="edgeStyle=orthogonalEdgeStyle;html=1;fillColor=none;" parent="1" source="115" target="111" edge="1">
                    <mxGeometry relative="1" as="geometry"/>
                </mxCell>
                <mxCell id="115" value="x+1==&lt;br&gt;len(least)" style="rhombus;whiteSpace=wrap;html=1;fillColor=none;" parent="1" vertex="1">
                    <mxGeometry x="1526.56" y="740" width="73.44" height="80" as="geometry"/>
                </mxCell>
                <mxCell id="133" style="edgeStyle=orthogonalEdgeStyle;html=1;exitX=0;exitY=0.5;exitDx=0;exitDy=0;entryX=1;entryY=0.5;entryDx=0;entryDy=0;fillColor=none;" parent="1" source="116" target="132" edge="1">
                    <mxGeometry relative="1" as="geometry"/>
                </mxCell>
                <mxCell id="116" value="&quot;Bunche (x) consinting of (sold(least(x))) was the least expensive and sold for (Least)&quot;" style="shape=parallelogram;perimeter=parallelogramPerimeter;whiteSpace=wrap;html=1;fixedSize=1;fillColor=none;" parent="1" vertex="1">
                    <mxGeometry x="1462.03" y="952.5" width="202.5" height="55" as="geometry"/>
                </mxCell>
                <mxCell id="117" value="True" style="edgeStyle=orthogonalEdgeStyle;html=1;fillColor=none;" parent="1" source="119" target="125" edge="1">
                    <mxGeometry x="-0.0102" relative="1" as="geometry">
                        <mxPoint as="offset"/>
                    </mxGeometry>
                </mxCell>
                <mxCell id="118" value="False" style="edgeStyle=orthogonalEdgeStyle;html=1;startArrow=none;exitX=0.5;exitY=1;exitDx=0;exitDy=0;fillColor=none;" parent="1" source="119" target="124" edge="1">
                    <mxGeometry relative="1" as="geometry"/>
                </mxCell>
                <mxCell id="119" value="x&amp;lt;&lt;br&gt;len(least)" style="rhombus;whiteSpace=wrap;html=1;fillColor=none;" parent="1" vertex="1">
                    <mxGeometry x="908.28" y="805" width="73.44" height="80" as="geometry"/>
                </mxCell>
                <mxCell id="120" style="edgeStyle=orthogonalEdgeStyle;html=1;exitX=0;exitY=0.5;exitDx=0;exitDy=0;entryX=1;entryY=1;entryDx=0;entryDy=0;fillColor=none;" parent="1" source="121" target="119" edge="1">
                    <mxGeometry relative="1" as="geometry"/>
                </mxCell>
                <mxCell id="121" value="x+=1" style="whiteSpace=wrap;html=1;fillColor=none;" parent="1" vertex="1">
                    <mxGeometry x="1075.3899999999999" y="900" width="64.22" height="30" as="geometry"/>
                </mxCell>
                <mxCell id="122" style="edgeStyle=orthogonalEdgeStyle;html=1;exitX=0;exitY=0.5;exitDx=0;exitDy=0;fillColor=none;" parent="1" source="123" target="119" edge="1">
                    <mxGeometry relative="1" as="geometry"/>
                </mxCell>
                <mxCell id="123" value="x+=1" style="whiteSpace=wrap;html=1;fillColor=none;" parent="1" vertex="1">
                    <mxGeometry x="1048.2799999999997" y="765" width="64.22" height="30" as="geometry"/>
                </mxCell>
                <mxCell id="134" style="edgeStyle=orthogonalEdgeStyle;html=1;exitX=1;exitY=0.5;exitDx=0;exitDy=0;entryX=0;entryY=0.5;entryDx=0;entryDy=0;fillColor=none;" parent="1" source="124" target="132" edge="1">
                    <mxGeometry relative="1" as="geometry"/>
                </mxCell>
                <mxCell id="124" value="&quot; were the least expensive and all sold for (Least)&quot;" style="shape=parallelogram;perimeter=parallelogramPerimeter;whiteSpace=wrap;html=1;fixedSize=1;fillColor=none;" parent="1" vertex="1">
                    <mxGeometry x="885" y="950" width="120" height="60" as="geometry"/>
                </mxCell>
                <mxCell id="125" value="&quot;, (x) consinting of (sold(least(x)))&quot;" style="shape=parallelogram;perimeter=parallelogramPerimeter;whiteSpace=wrap;html=1;fixedSize=1;fillColor=none;" parent="1" vertex="1">
                    <mxGeometry x="1038.28" y="825" width="138.44" height="40" as="geometry"/>
                </mxCell>
                <mxCell id="129" value="" style="edgeStyle=orthogonalEdgeStyle;html=1;fillColor=none;" parent="1" source="128" target="115" edge="1">
                    <mxGeometry relative="1" as="geometry"/>
                </mxCell>
                <mxCell id="128" value="x=0" style="whiteSpace=wrap;html=1;fillColor=none;" parent="1" vertex="1">
                    <mxGeometry x="1538.28" y="685" width="50" height="30" as="geometry"/>
                </mxCell>
                <mxCell id="136" value="" style="edgeStyle=orthogonalEdgeStyle;html=1;fillColor=none;" parent="1" source="131" target="135" edge="1">
                    <mxGeometry relative="1" as="geometry"/>
                </mxCell>
                <mxCell id="131" value="" style="ellipse;whiteSpace=wrap;html=1;fillColor=#FFB366;" parent="1" vertex="1">
                    <mxGeometry x="236.56" y="482.5" width="30" height="30" as="geometry"/>
                </mxCell>
                <mxCell id="132" value="" style="ellipse;whiteSpace=wrap;html=1;fillColor=#FFB366;" parent="1" vertex="1">
                    <mxGeometry x="1238.28" y="965" width="30" height="30" as="geometry"/>
                </mxCell>
                <mxCell id="138" value="" style="edgeStyle=orthogonalEdgeStyle;html=1;fillColor=none;" parent="1" source="135" target="137" edge="1">
                    <mxGeometry relative="1" as="geometry"/>
                </mxCell>
                <mxCell id="135" value="x=0" style="whiteSpace=wrap;html=1;fillColor=none;" parent="1" vertex="1">
                    <mxGeometry x="301.56" y="485.78" width="65" height="23.44" as="geometry"/>
                </mxCell>
                <mxCell id="140" value="True" style="edgeStyle=orthogonalEdgeStyle;html=1;exitX=0;exitY=1;exitDx=0;exitDy=0;fillColor=none;" parent="1" source="137" target="139" edge="1">
                    <mxGeometry relative="1" as="geometry">
                        <Array as="points">
                            <mxPoint x="422" y="529.37"/>
                            <mxPoint x="315" y="529.37"/>
                        </Array>
                    </mxGeometry>
                </mxCell>
                <mxCell id="145" value="False" style="edgeStyle=orthogonalEdgeStyle;html=1;fillColor=none;" parent="1" source="137" target="144" edge="1">
                    <mxGeometry relative="1" as="geometry"/>
                </mxCell>
                <mxCell id="137" value="x&amp;lt;len(price)" style="rhombus;whiteSpace=wrap;html=1;fillColor=none;" parent="1" vertex="1">
                    <mxGeometry x="399.06" y="455" width="90" height="85" as="geometry"/>
                </mxCell>
                <mxCell id="142" value="" style="edgeStyle=orthogonalEdgeStyle;html=1;fillColor=none;" parent="1" source="139" target="141" edge="1">
                    <mxGeometry relative="1" as="geometry"/>
                </mxCell>
                <mxCell id="139" value="Total+=price(x)" style="whiteSpace=wrap;html=1;fillColor=none;" parent="1" vertex="1">
                    <mxGeometry x="266.55999999999995" y="544.37" width="100" height="50" as="geometry"/>
                </mxCell>
                <mxCell id="143" style="edgeStyle=orthogonalEdgeStyle;html=1;exitX=1;exitY=0.5;exitDx=0;exitDy=0;entryX=0.5;entryY=1;entryDx=0;entryDy=0;fillColor=none;" parent="1" source="141" target="137" edge="1">
                    <mxGeometry relative="1" as="geometry"/>
                </mxCell>
                <mxCell id="141" value="x+=1" style="whiteSpace=wrap;html=1;fillColor=none;" parent="1" vertex="1">
                    <mxGeometry x="281.55999999999995" y="614.37" width="70" height="30" as="geometry"/>
                </mxCell>
                <mxCell id="147" value="" style="edgeStyle=orthogonalEdgeStyle;html=1;fillColor=none;" parent="1" source="144" target="146" edge="1">
                    <mxGeometry relative="1" as="geometry"/>
                </mxCell>
                <mxCell id="144" value="Average=&lt;br&gt;Total/len(price)" style="whiteSpace=wrap;html=1;fillColor=none;" parent="1" vertex="1">
                    <mxGeometry x="545" y="471.56" width="105" height="50" as="geometry"/>
                </mxCell>
                <mxCell id="150" style="edgeStyle=orthogonalEdgeStyle;html=1;exitX=1;exitY=0.5;exitDx=0;exitDy=0;entryX=1;entryY=0.5;entryDx=0;entryDy=0;fillColor=none;" parent="1" source="146" target="6" edge="1">
                    <mxGeometry relative="1" as="geometry">
                        <Array as="points">
                            <mxPoint x="700" y="588"/>
                            <mxPoint x="700" y="110"/>
                        </Array>
                    </mxGeometry>
                </mxCell>
                <mxCell id="146" value="&quot;The average price of&lt;br&gt;&amp;nbsp;the sold Bunches is (Average)&quot;" style="shape=parallelogram;perimeter=parallelogramPerimeter;whiteSpace=wrap;html=1;fixedSize=1;fillColor=none;" parent="1" vertex="1">
                    <mxGeometry x="520" y="558.43" width="155" height="60" as="geometry"/>
                </mxCell>
                <mxCell id="154" style="edgeStyle=orthogonalEdgeStyle;html=1;exitX=1;exitY=0.5;exitDx=0;exitDy=0;entryX=1;entryY=0.5;entryDx=0;entryDy=0;fillColor=none;" parent="1" source="152" target="6" edge="1">
                    <mxGeometry relative="1" as="geometry">
                        <Array as="points">
                            <mxPoint x="700" y="810"/>
                            <mxPoint x="700" y="110"/>
                        </Array>
                    </mxGeometry>
                </mxCell>
                <mxCell id="152" value="'''Here is a list of all commands available:&lt;br&gt;&quot;S&quot; =&amp;gt; Sold command, registers the name&lt;br&gt;&amp;nbsp;and price of a sold Bunche&lt;br&gt;&quot;I&quot; =&amp;gt; Information command, provides you&lt;br&gt;with the total number of Bunches &lt;br&gt;sold, the most and least expensive&lt;br&gt;ones and the average price&lt;br&gt;&quot;H&quot;&amp;nbsp;=&amp;gt; Help command, provides you with&lt;br&gt;a list of commands and their&lt;br&gt;description&lt;br&gt;&quot;Q&quot;&amp;nbsp;=&amp;gt; Quit command, quits the program'''" style="shape=parallelogram;perimeter=parallelogramPerimeter;whiteSpace=wrap;html=1;fixedSize=1;fillColor=none;" parent="1" vertex="1">
                    <mxGeometry x="274.22" y="715" width="280" height="190" as="geometry"/>
                </mxCell>
                <mxCell id="157" value="" style="edgeStyle=orthogonalEdgeStyle;html=1;fillColor=none;" parent="1" source="156" target="5" edge="1">
                    <mxGeometry relative="1" as="geometry"/>
                </mxCell>
                <mxCell id="156" value="action=action.upper()" style="whiteSpace=wrap;html=1;fillColor=none;" parent="1" vertex="1">
                    <mxGeometry x="136.56" y="164.06" width="120" height="30" as="geometry"/>
                </mxCell>
            </root>
        </mxGraphModel>
    </diagram>
</mxfile>